<?xml version="1.0" encoding="UTF-8" standalone="no"?>
<svg
   xmlns:dc="http://purl.org/dc/elements/1.1/"
   xmlns:cc="http://creativecommons.org/ns#"
   xmlns:rdf="http://www.w3.org/1999/02/22-rdf-syntax-ns#"
   xmlns:svg="http://www.w3.org/2000/svg"
   xmlns="http://www.w3.org/2000/svg"
   xmlns:sodipodi="http://sodipodi.sourceforge.net/DTD/sodipodi-0.dtd"
   xmlns:inkscape="http://www.inkscape.org/namespaces/inkscape"
   inkscape:version="1.1-dev (bc69992, 2020-04-15)"
   inkscape:export-ydpi="63.849998"
   inkscape:export-xdpi="63.849998"
   inkscape:export-filename="/Users/mrdaza/Proyectos/CovidDataProject/WebSite/src/assets/images/logo/lasalle.png"
   sodipodi:docname="lasalle_azul.svg"
   xml:space="preserve"
   enable-background="new 0 0 601.387 164"
   viewBox="0 0 601.387 164"
   height="164px"
   width="601.387px"
   y="0px"
   x="0px"
   id="Capa_1"
   version="1.1"><metadata
   id="metadata886"><rdf:RDF><cc:Work
       rdf:about=""><dc:format>image/svg+xml</dc:format><dc:type
         rdf:resource="http://purl.org/dc/dcmitype/StillImage" /></cc:Work></rdf:RDF></metadata><defs
   id="defs884" /><sodipodi:namedview
   inkscape:current-layer="Capa_1"
   inkscape:window-maximized="0"
   inkscape:window-y="23"
   inkscape:window-x="0"
   inkscape:cy="82"
   inkscape:cx="300.69351"
   inkscape:zoom="1.0625437"
   showgrid="false"
   id="namedview882"
   inkscape:window-height="1005"
   inkscape:window-width="1680"
   inkscape:pageshadow="2"
   inkscape:pageopacity="0"
   guidetolerance="10"
   gridtolerance="10"
   objecttolerance="10"
   borderopacity="1"
   bordercolor="#666666"
   pagecolor="#ffffff" />
<g
   id="g879">
	<g
   id="g847">
		<path
   id="path833"
   d="M79.883,159.38h20.64l7.313-16.776h40.465l7.325,16.776h20.664L128.086,57.36L79.883,159.38z     M115.35,125.555l12.736-28.745l12.701,28.723L115.35,125.555z"
   fill="#003057" />
		<polygon
   id="polygon835"
   points="594.955,76.926 594.955,57.373 528.096,57.373 528.096,159.38 594.955,159.38 594.955,139.413     550.023,139.413 550.023,116.563 587.559,116.563 587.559,97.011 550.023,97.011 550.023,76.926   "
   fill="#003057" />
		<polygon
   id="polygon837"
   points="476.584,57.373 454.644,57.373 454.644,139.413 454.644,159.38 476.584,159.38 518.845,159.38     518.845,139.413 476.584,139.413   "
   fill="#003057" />
		<polygon
   id="polygon839"
   points="403.132,57.373 381.204,57.373 381.204,139.413 381.204,159.38 403.132,159.38 445.393,159.38     445.393,139.413 403.132,139.413   "
   fill="#003057" />
		<polygon
   id="polygon841"
   points="28.37,57.36 6.431,57.36 6.431,139.413 6.431,159.38 28.37,159.38 70.632,159.38 70.632,139.413     28.37,139.413   "
   fill="#003057" />
		<path
   id="path843"
   d="M241.236,97.708c-13.197-2.954-19.282-4.171-19.282-12.512c0-8.342,9.204-10.066,15.465-10.066    c6.25,0,15.289,0.861,23.795,8.152l10.42-16.506c0,0-10.94-10.586-33.861-10.586c-22.932,0-36.649,13.717-36.649,31.428    c0,17.532,12.76,25.613,34.381,29.867c18.1,3.557,18.939,7.467,18.939,13.539c0,6.084-9.546,10.325-19.27,10.325    c-12.169,0.014-25.012-11.708-25.012-11.708l-11.814,16.849c0,0,13.031,13.905,37.866,13.905s38.729-11.648,38.729-33.529    C274.919,104.997,254.432,100.661,241.236,97.708z"
   fill="#003057" />
		<polygon
   id="polygon845"
   points="323.749,57.36 314.521,76.618 318.609,98.098 340.313,100.839 321.126,111.377 325.226,132.892     309.276,117.911 290.16,128.485 275.545,159.38 296.186,159.38 303.451,142.604 344.094,142.604 351.289,159.38 371.941,159.38       "
   fill="#F5A800" />
	</g>
	<g
   id="g877">
		<g
   id="g875">
			<path
   id="path849"
   d="M31.549,23.512c0,6.403-5.198,12.015-12.559,12.015c-7.349,0-12.536-5.623-12.536-12.015V4.006h3.887     v19.045c0,4.879,3.84,8.731,8.648,8.731c4.832,0,8.684-3.853,8.684-8.731V4.006h3.875L31.549,23.512L31.549,23.512z"
   fill="#003057" />
			<path
   id="path851"
   d="M61.582,4.006h3.828v31.12h-4.359L44.51,10.055v25.083h-3.816V4.006h4.36l16.529,25.036L61.582,4.006     L61.582,4.006z"
   fill="#003057" />
			<path
   id="path853"
   d="M78.701,35.137h-3.828V4.005h3.828V35.137z"
   fill="#003057" />
			<path
   id="path855"
   d="M98.302,35.137L85.566,4.005h3.946l10.881,26.051l10.881-26.051h3.97l-12.736,31.132H98.302z"
   fill="#003057" />
			<path
   id="path857"
   d="M125.511,7.573v9.701h14.308v3.567h-14.308v10.716h14.815v3.568h-18.632V4.006h18.384v3.567H125.511z"
   fill="#003057" />
			<path
   id="path859"
   d="M158.474,3.981c5.978,0,9.522,3.64,9.522,8.957c0,4.654-2.824,7.998-7.467,8.742l8.731,13.457h-4.478     l-8.554-13.244h-4.809v13.244h-3.791V3.983h10.846V3.981z M151.432,18.172h6.923c3.533,0,5.801-2.14,5.801-5.233     c0-3.119-2.552-5.223-5.777-5.223h-6.947V18.172z"
   fill="#003057" />
			<path
   id="path861"
   d="M183.616,20.334c-4.313-1.241-7.845-3.722-7.845-8.177c0-5.623,4.442-8.601,9.18-8.553     c2.717,0.034,5.518,1.004,7.562,2.988l-2.339,2.6c-1.524-1.371-3.45-1.998-5.222-1.926c-2.788,0.082-5.234,1.795-5.234,4.772     c0,2.623,1.855,4.123,5.447,5.21l2.315,0.732c4.005,1.265,7.101,3.994,7.101,8.826c0,5.457-4.572,8.672-9.735,8.719     c-3.343,0.023-6.888-1.252-9.511-3.994l2.339-2.729c2.103,2.256,4.75,3.166,7.124,3.072c3.273-0.096,6.038-2.08,6.038-5.069     c0-3.036-1.891-4.606-5.045-5.706L183.616,20.334z"
   fill="#003057" />
			<path
   id="path863"
   d="M205.803,35.137h-3.828V4.005h3.828V35.137z"
   fill="#003057" />
			<path
   id="path865"
   d="M226.479,4.006c8.813,0,16.032,7.006,16.032,15.56c0,8.565-7.23,15.561-16.032,15.561h-11.201V4.006     H226.479z M219.095,31.403h7.372c6.77,0,12.181-5.363,12.181-11.826s-5.411-11.826-12.181-11.826h-7.372V31.403z"
   fill="#003057" />
			<path
   id="path867"
   d="M270.666,35.137l-3.733-8.86h-14.378l-3.733,8.86h-4.041l12.878-31.12h4.17l12.878,31.12H270.666z      M265.42,22.448l-5.659-13.836l-5.683,13.836H265.42z"
   fill="#003057" />
			<path
   id="path869"
   d="M292.736,4.006c8.814,0,16.043,7.006,16.043,15.56c0,8.565-7.229,15.561-16.043,15.561h-11.2V4.006     H292.736z M285.351,31.403h7.373c6.782,0,12.181-5.363,12.181-11.826s-5.41-11.826-12.181-11.826h-7.373V31.403z"
   fill="#003057" />
			<path
   id="path871"
   d="M339.438,4.006c8.814,0,16.045,7.006,16.045,15.56c0,8.565-7.229,15.561-16.045,15.561h-11.2V4.006     H339.438z M332.066,31.403h7.372c6.782,0,12.183-5.363,12.183-11.826S346.21,7.751,339.438,7.751h-7.372V31.403z"
   fill="#003057" />
			<path
   id="path873"
   d="M365.762,7.573v9.701h14.308v3.567h-14.308v10.716h14.815v3.568h-18.632V4.006h18.384v3.567H365.762z"
   fill="#003057" />
		</g>
	</g>
</g>
</svg>
